<?xml version="1.0" encoding="UTF-8"?>
<svg xmlns="http://www.w3.org/2000/svg" version="1.1" viewBox="0 0 784.8 604.8">
  <defs>
    <style>
      .cls-1 {
        fill: #fff;
      }
    </style>
  </defs>
  <!-- Generator: Adobe Illustrator 28.6.0, SVG Export Plug-In . SVG Version: 1.2.0 Build 709)  -->
  <g>
    <g id="Layer_1">
      <g>
        <g>
          <g>
            <g>
              <path class="cls-1" d="M56.5,450.4c-1.8-2.1-3.8-3.7-6.1-4.9-2.6,3.8-3.6,6.1-3.2,6.9,0,.6,1.2,1.5,3.1,2.7,1.8,1.1,3,1.7,3.5,1.8.6,0,1.3-1,2-2.9.7-1.8.9-3,.7-3.6h0ZM64.3,443.2c-1.6-1.2-2.6-1.8-3-1.8-.4.2-1.1,1.1-2.1,2.9-.8,1.6-1.4,2.9-1.7,3.9.5.9,1.4,1.8,2.7,2.9,1.4,1.3,2.6,1.9,3.5,2,.9-.1,1.8-1.2,2.6-3.3.6-1.6.9-2.8.9-3.4-.2-.8-1.1-1.9-2.9-3.2h0Z"/>
              <path class="cls-1" d="M115.2,499.9c-2-2.2-4.1-3.8-6.2-4.8-.3.3-.9,1.4-1.8,3.3-1.1,2-1.5,3.2-1.4,3.5,0,.6,1.1,1.5,3,2.7s3.1,1.8,3.7,1.8,1.2-.9,1.9-2.8,1-3.1.8-3.7h0ZM121.8,493.4c-1.6-1.2-2.6-1.8-2.9-1.8-1,.5-2.3,2.8-3.8,6.8.5.9,1.4,1.9,2.7,3,1.4,1.2,2.6,1.9,3.4,2,.9-.1,1.8-1.2,2.6-3.4.6-1.7.9-2.8.9-3.4,0-.8-1.1-1.9-2.9-3.2h0Z"/>
              <path class="cls-1" d="M385.6,507.6c-.5-.2-1.2-.2-2,0-17.7,3.2-27.4,5.2-29.2,6-.8.3-1.7,1-2.8,1.9s-1.8,1.7-2,2.2c-.1.2-.1.4.1.4.2,0,.6,0,1.1-.2,5.9-1.8,13-3.4,21.2-4.6,6.2-1,9.3-1.6,9.3-1.9,2.7-1.5,4.2-2.6,4.5-3.3.2-.1.2-.3-.2-.5h0Z"/>
              <path class="cls-1" d="M163.1,464.1c-1-2.2-2-3.2-3.1-3.2s-.3,0-.4.1c-1.2,2.6-2,4.6-2.4,6.2.2,1.4.8,2.8,1.7,4.1,1.2,1.6,2,3.1,2.4,4.3-.3,1.8-2.2,2.7-5.5,2.7s-3.4-.9-5.7-2.6c-2.2-1.6-3.3-2.9-3.4-3.8,0-.5,0-1.2.1-2s.1-1.3.1-1.5c-.3-.2-.6-.3-.9-.3-.8,0-1.8,1.2-3.2,3.6-1.4,2.7-2.9,4.4-4.3,5-2.3,1-4.7,1.5-7.3,1.5h-38.6c-5.7-.7-10-4.4-12.9-11.2-1.5-3.6-2.9-9.4-4.2-17.3-.3-1.9-.7-2.8-1.1-2.8s-.9.8-1.3,2.5c-.2.9-.2,2.2-.2,4.1,0,1.8,0,3.2-.2,4-4.8,2.5-7.5,4-8.2,4.6-4.9,3.7-7.4,8.1-7.4,13s2,4,6.1,3.9c3.7-.1,6.5-.9,8.4-2.5.5-.4,1.9-2.1,4.1-4.9,1.8,5.7,3.8,9.6,5.9,11.8,2.6,2.7,6.3,4,11.1,4h38.5c3.4,0,6.2-1.2,8.6-3.7.2-.3,1.5-2.1,3.9-5.5,1.6,3.2,2.6,5,3.2,5.4,1.4,1.1,3.1,2.1,5.2,2.9,1.7.6,2.9.9,3.6.9,4.1,0,6.7-1,7.7-3.1,1.4-3,2.1-6.3,2.1-9.8-.4-4.5-1.2-7.9-2.4-10.4h0ZM70.2,469.1c-1.3.3-3.1.3-5.5,0,1.8-1.4,3.6-2.8,5.3-4.1,1.6-1.4,2.7-2.8,3.3-4.2.6,2.9,1.1,5.1,1.5,6.8-1.9.8-3.4,1.3-4.6,1.5Z"/>
              <path class="cls-1" d="M214.6,422.4c-.4-.2-.9-.2-1.6.1-3.1,1.2-8.4,3.6-15.8,7.1-9.3,4.4-16,8-20.2,10.8-1.4.9-3,2.5-4.7,4.5-1.7,2.1-2.6,3.4-2.6,4.1s.1.3.2.3c.3,0,.7-.2,1.3-.6,6.3-4.1,14.8-8.6,25.5-13.6,4.7-2.1,9.4-4.2,14.1-6.4,1.7-2.3,2.9-4.1,3.9-5.4.4-.4.3-.7,0-.9h0Z"/>
              <path class="cls-1" d="M241.1,471.6c0,1.2-.1,2.4-.2,3.5-.5,6.6-3.5,10.1-8.8,10.5h-.1c-4,0-7.1-.7-9.4-2-1-.6-3.2-2.4-6.5-5.4-4.2,3-6.7,4.7-7.7,5.3-2.8,1.5-5.9,2.3-9.1,2.3h-3.4c-7,0-14,3.3-21.2,10.2-5.6,6.3-11.2,12.6-16.8,19-6.1,6.8-11.2,10.1-15.5,10-1.1,0-2.1-.3-2.9-.7-2-1.1-3.3-3.3-4-6.7-.3-1.7-.5-3.7-.5-6.1s.9-7.3,2.7-12.3c1.7-4.7,3.6-8.7,5.8-12,.5-.7.9-1.1,1.4-1.1s.8.3.8.9-.1.4-.2.7c-3,5.7-4.7,11.7-5.1,17.8-.1,2.1.2,4,1,5.7.9,1.9,2.3,2.8,4,2.8,2.6,0,5.7-1.9,9.2-5.7,3.8-4.3,7.5-8.6,11.3-13,5.5-5.9,11.1-10.6,16.8-14,1.5-.9,4-1.8,7.5-2.8,3.8-1.1,6.8-1.6,9-1.6,5.9,0,10.3-.9,13.3-2.7-2.2-2.3-3.9-3.5-5-3.5s-2.4.4-4.6,1.1c1.1-4.2,2.1-7.2,3.2-8.9,1.9-2.1,4.9-3.2,9.1-3.2s4.4.5,7.3,1.6c3.9,1.4,5.9,3.2,5.9,5.3s-.5,2.7-1.6,4c-1.1,1.1-2.2,2.2-3.3,3.3,2.6,1.8,5.5,2.8,8.6,3,0,0,2.8-.5,3.9-1.1,1.2-.7,1.8-1.5,1.8-2.4-1.8-8.4-4.1-20.3-6.8-35.9-.5-1.9-1.2-3.3-2.1-4.2,0,0,.3-1.9.9-5.6.5-3.1,1.1-4.7,1.8-4.7s.5.2.9.6.6,1,.7,1.8c.1.8.4,1.4.7,1.8s1,1,2.1,1.6c.9.6,1.4.9,1.4,1,0,1.1-.1,1.9-.2,2.7-.3,1.4-.9,3.4-1.9,5.8,1.2,5.4,2.4,10.8,3.6,16.2,1.5,6.7,2.2,12.5,2.2,17.1h0Z"/>
              <path class="cls-1" d="M232.1,485.5h0Z"/>
              <path class="cls-1" d="M260.5,479c-.5-6.7-1.5-16.1-3-28.3-1.8-14.1-2.7-21.5-2.8-22.2-.5-4-1.1-6.1-1.6-6.1s-.5.4-.9,1.1c-1.1,2.1-1.6,4.8-1.6,8.1s.3,3.6,1,8.3c.9,6.5,1.6,11.9,2.1,16.3.8,7.2,1.5,14.3,2.3,21.5.7,5.8,1.5,8.7,2.3,8.7s.8-.4,1.1-1.3c1-1.7,1.3-3.8,1.1-6.1h0Z"/>
              <path class="cls-1" d="M328.7,449.4c-1.3-.3-2.4-.5-3.2-.5.5-2.1.7-3.8.7-5.1,0-3-1.2-4.6-3.6-4.6s-1.9,1.2-3.1,3.7c-1,2.1-1.5,3.6-1.5,4.3,0,1.6.7,2.7,2,3.5,1,.4,2.1.8,3.1,1.2-.6,3.6-2.8,7.1-6.5,10.6-2.2,1.8-4.5,3.7-6.7,5.5,0,.1-.1.2-.1.2,0,.3.6.4,1.8.2,1.2-.2,2.2-.6,2.9-1.2,3.3-2.9,5.8-5.9,7.3-9,.9-2,1.8-4,2.7-6,.7.1,1.4.3,2.1.5.4.1.8,0,1.2-.3,1.3-.6,1.6-1.6.9-3h0ZM319.5,445.6c.7-1.8,1.5-2.7,2.4-2.7.9,1.9,1.8,3.8,2.6,5.8-2.4-1-4.1-2-5-3.1ZM327.2,426.3c-.4-2.9-1.4-4.4-3.1-4.4-4,0-7.9,3.6-11.6,10.7-3.1,6-4.9,11.3-5.3,15.9-.2,1.8,0,3.4.7,4.9.8,1.8,2,2.8,3.6,2.8s3.2-.5,4.4-1.4c1.2-1,1.8-2,1.8-3.2s-.1-1.3-.5-1.3c0,0-.4.5-1.3,1.4-.9,1-2.1,1.4-3.4,1.4-2.6,0-3.9-1.1-3.9-3.2s1.8-7.1,5.2-13c3.6-6.2,6.5-9.2,8.6-9.2s2.2.9,2.2,2.9-.2,2.9-.7,4.5c-.4,1.6-.7,2.4-.7,2.5s.1.2.2.3c.1,0,.3-.1.5-.2,1-.5,1.9-2.2,2.6-5.2,1-2.8,1.2-4.9.7-6.2h0Z"/>
              <path class="cls-1" d="M352.2,433.8c-1.3-.6-2.7-1.2-4-1.9-.2-.1-.5-.2-.7-.2-.7,0-1.4.8-2.1,2.3-.9,2.3-1.5,3.6-1.8,3.9-.2.3-.3.6-.3.9,0,.9,1,1.8,3.1,2.7,1.7.7,3.2,1.1,4.4,1.1s.3,0,.4-.1c.7-.6,1.6-2.7,2.7-6,.1-.2.1-.4.1-.6,0-.7-.6-1.4-1.8-2.1h0Z"/>
              <path class="cls-1" d="M372.5,498.2c-2-2.2-4.1-3.8-6.1-4.8-.3.3-.9,1.4-1.9,3.3-1.1,2-1.5,3.2-1.4,3.5.1.6,1.1,1.5,3,2.7s3.1,1.8,3.7,1.8,1.2-.9,1.9-2.8c.5-1.9.9-3.1.8-3.7h0ZM379,491.7c-1.6-1.2-2.6-1.8-2.9-1.8-1,.5-2.3,2.8-3.8,6.8.5.9,1.4,1.9,2.7,3,1.4,1.2,2.6,1.9,3.4,2,.9-.1,1.8-1.2,2.6-3.4.6-1.7.9-2.8.9-3.4-.2-.8-1.2-1.9-2.9-3.2h0Z"/>
              <path class="cls-1" d="M431.7,422c0-.1-.1-.1-.2-.2-.4-.2-.9-.2-1.6.1-1.3.5-3,1.2-5.1,2.1-2.9,1.3-6.4,2.9-10.6,4.9-9.3,4.4-16,8-20.2,10.8-1.4.9-3,2.5-4.7,4.5-1.7,2.1-2.6,3.4-2.6,4.1s.1.3.2.3c.3,0,.7-.2,1.3-.6,6.3-4.1,14.8-8.6,25.5-13.6,4.1-1.8,8.2-3.7,12.2-5.5.6-.3,1.2-.6,1.8-.8,1.7-2.3,3-4.1,3.9-5.4.1-.2.2-.3.1-.4.2,0,.2-.2,0-.3h0Z"/>
              <path class="cls-1" d="M418.4,454.2c-1.3-.6-2.7-1.2-4-1.8-.2-.1-.5-.2-.8-.2-.7,0-1.4.8-2.1,2.3-1,2.3-1.6,3.7-1.8,4s-.3.6-.3.8c0,.9,1.1,1.8,3.2,2.6,1.8.7,3.3,1.1,4.4,1.1s.4,0,.5-.1c.4-.4.8-1,1.2-1.8.1-.4.6-1.8,1.4-4.1.1-.2.1-.5.1-.6,0-.9-.6-1.6-1.8-2.2h0Z"/>
              <path class="cls-1" d="M474.9,432.3c-.1,0-.1-.1-.2-.1h0c.5-1.5.7-3.2.7-5.1,0-3.1-.9-4.6-2.8-4.6s-2.8,1.2-4.4,3.5c-1.4,2.1-2.2,3.8-2.3,5.1-.1,1.5.4,2.5,1.6,3,.1,0,.2.1.3.1,1.1.4,2.3.9,3.5,1.4-.6,1.2-1.4,2.3-2.3,3.5-2.9,3.7-7.5,7.4-13.7,11.3-1,.6-1.5,1.1-1.5,1.4s.2.3.6.3c1.7,0,4.1-1.1,7.1-3.3,3.2-2.3,5.6-4.2,7-5.7,1.2-1.2,2.9-3.4,5.1-6.6,1.2.6,2.1,1.1,2.9,1.6.7-.6,1.1-1.6,1.2-3.3,0-.6-1-1.4-2.8-2.5h0ZM469.4,430c-.4-.2-.5-.7-.4-1.5s.4-1.2.8-1.1c1.6.3,2.5.9,2.9,1.6.2.4.3,1.2.3,2.6-2.1-.9-3.3-1.4-3.6-1.6h0Z"/>
              <path class="cls-1" d="M474.7,486.1c-1.3-.6-2.7-1.2-4-1.9-.2-.1-.5-.2-.8-.2-.7,0-1.4.8-2.1,2.4-1,2.3-1.6,3.6-1.9,4.1-.2.3-.3.5-.3.8,0,.9,1.1,1.8,3.2,2.7,1.8.7,3.3,1.1,4.4,1.1s.3,0,.4-.1c.5-.4.9-.9,1.3-1.8.2-.5.7-1.9,1.4-4.1.1-.2.1-.4.1-.7,0-.9-.7-1.6-1.7-2.3h0Z"/>
              <path class="cls-1" d="M489.9,466.6c-.2-.1-.6-.1-1.4-.1-3.1.2-7.9-.5-14.4-2.1-6.2-1.6-10.9-3.2-14-4.8-2.3-1.2-4.6-2.4-6.9-3.6-1.3-.6-3-.9-5.1-1.1-1.9.1-4.4,1.1-7.5,3.2-1.9,3.3-3.1,6.1-3.8,8.2-.2.5-.3,1-.2,1.3s.3.5.7.4c2.9-.3,5.4-.8,7.6-1.6,1.7-.6,3.1-.9,4-.9s2.6.5,4.8,1.3c2.6,1,5.2,1.8,7.9,2.3-2.4,1.4-5.9,2.8-10.6,4.3-6.7,2.1-12.9,3.2-18.5,3.2s-3-.6-5.6-1.9c-2.6-1.2-4.4-1.9-5.5-1.9s-.6.1-.9.1c-.8.2-2,.8-3.6,1.7-1.4.7-3.5,1.4-6.3,2-1.5,0-3.4-.9-5.6-2.6-2.2-1.6-3.3-2.9-3.4-3.8,0-.5,0-1.2.1-2s.1-1.3.1-1.5c-.3-.2-.6-.3-.9-.3-.8,0-1.9,1.2-3.1,3.6-1.4,2.7-2.9,4.4-4.4,5-2.3,1-4.7,1.5-7.3,1.5h-25.7c-3.4,0-5.6-.3-6.7-.9,2-2.6,3.2-4.9,3.6-7,.1-.2.2-2.1.3-5.7.1-3.5-.4-6.3-1.6-8.4-1-1.7-2.1-2.6-3.4-2.6-2,0-4.4,1.8-7.1,5.2-2.7,3.5-4.4,7.1-5.2,10.9-.2,1-.3,1.9-.3,2.7s.3,2.4,1,4.4c-9.9,4.3-21.8,6.4-35.7,6.4s-15.2-1.1-20-3.3-7.2-5.3-7.2-9.1.6-3.9,1.7-7.1c.4-1,.5-1.7.5-2.2s-.1-.4-.3-.4c-.4,0-1.1.6-2.1,1.9s-2,3.1-2.9,5.5-1.4,4.4-1.4,5.9c0,6.1,3,10.8,9,14.3,5.2,3,11.3,4.6,18.3,4.6,12.7,0,23.4-1.4,32.1-4.2,3.6-1.1,8-3.1,13.2-6,.9.6,2.7,1.3,5.2,2.1,3.4,1.2,6.3,1.8,8.7,1.8h25.7c3.4,0,6.2-1.2,8.6-3.8.3-.3,1.5-2.1,3.9-5.5,1.6,3.2,2.6,5,3.2,5.4,1.4,1.1,3.1,2.1,5.2,2.9,1.7.6,2.9.9,3.6.9h0c2,.1,4.1-.6,6.3-2s3.8-2,4.7-2,2.8.7,5.3,2c2.4,1.3,4.3,2,5.6,2,4.9,0,12.3-2.1,22.1-6.2s15.9-6.2,18.4-6.2,3.4.1,5.9.4c2.6.3,4.4.4,5.3.4s1.9-.1,2.5-.3c.6-.2,1.1-.7,1.3-1.4.6-1.5,1.1-3,1.6-4.5,0-.1.1-.3.2-.6.6.1.6,0,.4-.2h0ZM350.6,471.4c-.4.3-1.4.8-3.1,1.6-2.5-1.6-3.7-3-3.7-4.2,2.3-4.3,4.5-6.4,6.8-6.4h.7c1.4,1.9,2.1,4.1,2.1,6.5-.5.8-1.5,1.7-2.8,2.5Z"/>
              <g>
                <path class="cls-1" d="M504.7,450.1c-1.8-2.1-3.8-3.7-6.1-4.9-2.6,3.8-3.6,6.1-3.2,6.9.1.6,1.2,1.5,3.1,2.7,1.8,1.1,2.9,1.7,3.5,1.8.6,0,1.3-1,2-2.9.7-1.8,1-3,.7-3.6h0ZM512.6,442.9c-1.6-1.2-2.6-1.8-3-1.8-.4.2-1.1,1.1-2.1,2.9-.8,1.6-1.4,2.9-1.7,3.9.5.9,1.4,1.8,2.7,2.9,1.4,1.3,2.6,1.9,3.5,2,.9-.1,1.8-1.2,2.6-3.3.6-1.6.9-2.8.9-3.4-.3-.8-1.3-1.9-2.9-3.2Z"/>
                <path class="cls-1" d="M582.2,421.8c-.4-.2-.9-.2-1.6.1-3.1,1.2-8.4,3.6-15.8,7.1-9.3,4.4-16,8-20.2,10.8-1.4.9-3,2.5-4.7,4.5-1.7,2.1-2.6,3.4-2.6,4.1s0,.3.2.3c.3,0,.7-.2,1.3-.6,6.3-4.1,14.8-8.6,25.5-13.6,4.7-2.1,9.4-4.2,14.1-6.4,1.7-2.3,2.9-4.1,3.9-5.4.3-.4.3-.6-.1-.9h0Z"/>
                <path class="cls-1" d="M593.2,459.1c-.6-1.7-1.2-2.6-1.6-2.6s-.4.2-.5.8c-.3,1.5-.8,3.1-1.5,4.8-.6,1.4-.9,2.4-.9,2.9s0,.6.4.9.4,1.1.4,2.4c-1.1.4-1.8.7-2.2.9-2.1-.3-3.4-.5-3.7-.7-.7-.3-1.7-1.1-3-2.3,0-.1.2-1.1.7-2.9s.7-3.1.7-3.9,0-.9-.4-.9-1.2.6-2.2,1.8c-.9,2.3-1.9,4.6-2.8,7-2,3-6.2,4.6-12.7,4.5-1.8,0-3.2-.1-4.1-.3.6-2.3,1.1-4.1,1.5-5.3.4-2.3.3-3.5-.2-3.5s-.6.4-1.1,1.2c-.4,1.2-.9,2.3-1.2,3.5-.8,1.5-2.4,2.9-4.8,4.1-3.7,1.8-9,2.9-16,3-5.7-.7-10-4.4-12.9-11.2-1.5-3.6-2.9-9.4-4.2-17.3-.3-1.9-.7-2.8-1.1-2.8s-.9.8-1.3,2.5c-.2.9-.2,2.2-.2,4.1,0,1.8,0,3.2-.2,4-4.8,2.5-7.5,4-8.2,4.6-4.9,3.7-7.4,8.1-7.4,13s2.1,4,6.1,3.9c3.6-.1,6.4-.9,8.4-2.5.5-.4,1.9-2,4.1-4.9,1.9,5.7,3.8,9.6,5.9,11.8,2.6,2.7,6.3,4,11.1,4,3.5-.1,6.7-.5,9.7-1.1,2.6-.5,5.1-1.2,7.3-2.1,2.4.9,5.1,1.4,8,1.4s6.4-.6,9-1.8c2.8-1.2,4.7-2.8,5.5-4.8,1.3.8,2.6,1.6,3.9,2.3,1.3.8,2.7,1.2,4,1.1,2.9-.1,5.3-1.9,7-5.4,1.4-2.9,2.1-6.2,2.2-9.9-.5-1.2-.7-2.6-1.5-4.3h0ZM515.2,465.5c-1.3.3-3.1.3-5.5,0,1.8-1.4,3.6-2.8,5.3-4.1,1.6-1.4,2.7-2.8,3.2-4.2.6,2.9,1.1,5.1,1.5,6.8-1.8.8-3.3,1.3-4.5,1.5h0Z"/>
                <path class="cls-1" d="M639.1,421.8c-.4-.2-.9-.2-1.6.1-3.1,1.2-8.4,3.6-15.8,7.1-9.3,4.4-16,8-20.2,10.8-1.4.9-3,2.5-4.7,4.5-1.7,2.1-2.6,3.4-2.6,4.1s0,.3.2.3c.3,0,.7-.2,1.3-.6,6.4-4.1,14.8-8.6,25.5-13.6,4.7-2.1,9.4-4.2,14.1-6.4,1.7-2.3,2.9-4.1,3.9-5.4.3-.4.3-.6-.1-.9h0Z"/>
                <path class="cls-1" d="M652.8,460.1c-2-1.7-4.1-2.5-6.4-2.5s-4.9.9-8.4,2.9c-2.6,1.4-4.5,2.7-5.7,3.7-4.5,3.9-10.6,10.9-18.2,20.8-5.3,6.9-9.5,10.3-12.5,10.3s-2.6-.8-3.4-2.5c-.7-1.4-1-3.1-.9-4.9.3-5.5,1.8-10.7,4.4-15.6,0-.2.2-.4.2-.5,0-.6-.2-.9-.7-.9s-.8.3-1.2,1c-1.9,2.9-3.6,6.4-5.1,10.5-1.6,4.4-2.4,8-2.4,10.8,0,7.8,2.2,11.7,6.6,11.8,3.7.1,8.1-3.1,13.1-9.4,4.6-5.9,9.1-11.9,13.6-17.8,5.9-6.4,11.9-9.6,18-9.6s6.2,1.4,9.7,4c0,.1.3.1.4.1,1.5,0,2.2-1.8,2.2-5.5,0-2.6-1.1-4.9-3.3-6.7h0Z"/>
                <path class="cls-1" d="M659.6,421.7c-1,0-1.9.7-2.9,2-1.1,1.5-1.6,3.2-1.6,5-2.1,3.2-3.2,6-3.2,8.5,0,3.8,1.7,5.7,5,5.7,4.9,0,7.4-4.3,7.4-13,0-5.5-1.6-8.2-4.7-8.2h0ZM656.2,436.4c-1.3,0-1.9-.7-1.9-2.1s.6-2.6,1.9-5.1c.6-.2,1.2-.2,1.8-.2,2.6,0,4.1,1.5,4.6,4.6-2.5,1.9-4.6,2.8-6.4,2.8Z"/>
                <path class="cls-1" d="M733.5,422.4c-.4-.2-.9-.2-1.6.1-3.1,1.2-8.4,3.6-15.8,7.1-9.3,4.4-16,8-20.2,10.8-1.4.9-3,2.5-4.7,4.5-1.7,2.1-2.6,3.4-2.6,4.1s0,.3.2.3c.3,0,.7-.2,1.3-.6,6.3-4.1,14.8-8.6,25.5-13.6,4.7-2.1,9.4-4.2,14.1-6.4,1.7-2.3,3-4.1,3.9-5.4.4-.4.3-.7-.1-.9h0Z"/>
                <path class="cls-1" d="M735.2,463c-1.2-2.9-3.1-4.3-5.6-4.2-1.5,0-3,.9-4.5,2.7-1.5,1.8-2.6,3.9-3.4,6.3-.4.1-.8.1-1,0-.2.2-2,2.1-5.2,5.9-1.4,1.6-3.6,2.5-6.6,2.9h-25.7c-3.7-.2-7.4-4-11.2-11.6-2.2-5.3-4.5-10.7-6.8-16-.8-1.7-1.4-2.5-1.8-2.5s-.8.9-.9,2.6c0,1.1,0,2.7,0,4.6.8,2,1.7,4.7,2.6,8.3.9,3.6,1.3,5.9,1.3,7.1,0,3.3-1.6,5.9-4.7,7.9-2.8,1.8-6.2,2.7-10.1,2.7s-3.5-.4-3.9-1.4c-.2-.4-.3-2-.3-4.8s-.2-.8-.5-.8c-.3.1-.6.4-.9,1-1.6,3.2-2.3,6-2.2,8.3,0,1.9.8,3.6,2,5.1,1.3,1.5,2.8,2.2,4.5,2.3,6.3.2,11.1-1.8,14.5-5.7,2.8-3.3,4.2-7.5,4.2-12.6s0-1.1,0-1.7c2.1,4.6,3.7,7.9,5.1,9.7,2.9,4.3,5.9,6.4,9.2,6.4h25.7c3.1-.6,5.3-2.1,6.6-4.4,1.9-3.4,3-5.3,3.6-5.8,1.8,1.5,4.4,2.6,7.8,3.3,1.4.3,3,.5,4.7.6,1.2-.5,2.3-1.7,3.3-3.6,1-2,1.5-3.8,1.5-5.4.1-2.6-.3-5.1-1.2-7.2h0ZM723.9,468.3c.3-.4.7-.8,1-1.2.6-.7,1.3-1,2.1-1.1,1.5-.2,2.6.3,3.2,1.5,0,.3.4,1.4.9,3.5-2.7-.3-5-1.2-7.2-2.7Z"/>
              </g>
              <path class="cls-1" d="M157.9,492.4c-1.1-.5-2.1-1-3.2-1.5-.3-.1-.5-.2-.8-.4-.2-.1-.5-.2-.8-.2-.7,0-1.4.8-2.1,2.3-1,2.3-1.6,3.7-1.8,4.1-.2.2-.3.5-.3.8,0,.9,1,1.8,3.1,2.6,1.8.7,3.3,1.1,4.5,1.1s.4,0,.5-.1c.4-.4.8-1,1.1-1.8.1-.3.3-.9.6-1.7.2-.6.5-1.4.8-2.3.1-.2.1-.5.1-.7-.1-.8-.6-1.5-1.7-2.2h0Z"/>
            </g>
            <path class="cls-1" d="M120.3,447.6c-.2-1-.4-1.5-.7-1.5s-.3.2-.4.6c-.3,1.2-.6,2.5-.8,3.7-.3,1.4-.8,2.2-1.4,2.2s-1.4-.4-2.2-1.1c0-.4,0-1,.2-1.6s.3-1,.3-1.2c0-1.1-.3-1.6-.9-1.6s-.6,1.2-1.4,3.5c-.7,2.3-1.7,3.7-3,3.9-1.6.3-2.4-.3-2.4-1.8s0-1,.4-2c.2-.8.2-1.4,0-1.9,0-.3-.3-.5-.5-.5-.4,0-1,.9-1.6,2.6s-1,2.9-1,3.6c0,4.1,1.1,6.1,3.3,6.1s2.1-.4,2.9-1.2c.6-.7,1.2-1.4,1.8-2.1,1,.8,1.8,1.1,2.4,1.1s1.7-.4,2.6-1.3c1.3-1.3,2.2-3.5,2.6-6.5,0-1,0-2-.2-3h0ZM134.7,427.4c-.4-.2-.9-.2-1.6.1-3.2,1.2-8.4,3.6-15.8,7.1-9.3,4.4-16,8-20.2,10.8-1.4.9-3,2.5-4.7,4.5-1.7,2.1-2.6,3.4-2.6,4.1s0,.3.2.3c.3,0,.7-.2,1.3-.6,6.3-4.1,14.8-8.6,25.5-13.6,4.7-2.1,9.4-4.2,14.1-6.3,1.7-2.3,2.9-4.1,3.9-5.4.4-.6.3-.8,0-1h0Z"/>
          </g>
          <g>
            <path class="cls-1" d="M68.9,573.5c-2.9,0-4.5-1.5-4.9-4.4-.4-2.4-.6-7-.6-13.8s.7-1.9,2-1.9c7.6,0,13.1,0,16.4.2v-4.2c-.5-.4-.8-.6-1-.6s-1.1,0-3.1.3-4.3.4-6.9.6-4.6.3-6,.3-.8-.2-1-.7c-.3-.4-.4-.8-.4-1.2v-13.8c0,0,0-.4,0-.8,0-.4,0-.7.2-.8,0,0,.2-.3.4-.5s.4-.3.7-.4c.3,0,.7,0,1.1,0s5.8.3,16.6,1l.9-.8v-4.4l-1-.3c-5.5.6-17.1.9-34.9.9l-.5.5v1.6c.7,0,1.2.2,1.4.2s.7,0,1.3.2c.7,0,1.1.3,1.4.4.3.2.7.4,1.1.7s.8.6,1,1,.4.8.6,1.4c.2,1,.3,4.1.3,9.4v30.7c0,.7.2,1.3.8,1.9.5.6,1,1.1,1.6,1.4.7.2,3.1.3,6.9.3,10.3,0,18.6.2,24.9.6l1.9-5.4-.7-.6-20.6,1.1h0Z"/>
            <polygon class="cls-1" points="76.4 513.8 72.1 510.5 71.2 510.6 63.1 522.3 64.6 524.8 76.4 513.8"/>
            <path class="cls-1" d="M124.2,568.8c-4.3,3.3-8.4,4.9-12,4.9s-2.8-.3-4-.9-2.1-1.4-2.8-2.3c-.7-.9-1.3-2-1.8-3.2s-.8-2.4-1-3.6-.3-2.3-.3-3.5,0-2.9.4-4.4c.3-1.6.7-3.2,1.2-4.8s1.4-3,2.5-4.1,2.4-1.6,3.9-1.6c2.2,0,3.8.9,4.8,2.6s1.6,3.8,1.6,6.3l1.2.5,6.7-3.9c0-1.5-.5-2.9-1.2-4s-1.6-2-2.7-2.6-2.3-1.1-3.5-1.3-2.6-.4-4-.4c-2.8,0-5.3.4-7.6,1.3-2.3.8-4.1,2-5.6,3.4s-2.7,3-3.7,4.9-1.7,3.8-2.1,5.8-.6,4.1-.6,6.2.3,3.6.8,5.3,1.3,3.2,2.3,4.6,2.4,2.5,4.2,3.3c1.8.8,3.8,1.2,6.1,1.2,6.7,0,12.9-2.9,18.8-8.6l-.7-1h-.9Z"/>
            <path class="cls-1" d="M159.5,547.1c-3-2.6-7.3-3.9-12.9-3.9s-10.3,1.7-13.9,5.1c-3.7,3.4-5.5,7.7-5.5,12.9s1.8,10.9,5.2,14c2.6,2.3,6.7,3.5,12.3,3.5s4.3-.2,6.2-.7,3.7-1.2,5.4-2.2,3.1-2.3,4.3-3.9c1.2-1.6,2.1-3.5,2.8-5.8s1-4.9,1-7.8c-.1-4.6-1.7-8.3-4.9-11.2h0ZM154.9,562.2c0,.9-.1,2.1-.2,3.4s-.3,2.4-.6,3.2c-.2.9-.6,1.8-1.1,2.7s-1.1,1.7-1.7,2.3c-.7.6-1.5,1-2.5,1.4s-2.2.6-3.5.6-2.6-.4-3.7-1.1-1.9-1.6-2.6-2.7c-.6-1.1-1.1-2.3-1.5-3.7s-.7-2.7-.8-3.8c-.1-1.2-.2-2.3-.2-3.4s.1-2.7.3-4,.5-2.7.9-4c.5-1.4,1-2.6,1.7-3.6s1.6-1.9,2.8-2.5c1.2-.7,2.5-1,3.9-1s3.1.4,4.3,1.1c1.2.7,2.1,1.7,2.8,3,.6,1.3,1.1,2.6,1.4,4s.4,2.9.4,4.6c0,1.5,0,2.6,0,3.5h0Z"/>
            <path class="cls-1" d="M190.4,569.1c-2,2.1-3.8,3.2-5.4,3.2s-.9,0-1.2-.3-.6-.6-.8-.9c-.2-.4-.4-.9-.5-1.6s-.2-1.4-.2-2.2-.1-1.7-.1-2.8v-3.1l.6-32.5-1-.8-13.4,1.2-.8.6v1.6h1c.5,0,.8,0,1,0s.5,0,.9,0,.7,0,.9,0c.2,0,.4,0,.8.2s.6.2.7.3c.2,0,.3.3.5.4.2.2.4.3.5.6.1.2.2.5.3.8.1.5.2,2.5.4,6.2.1,2.6.1,6.7.1,12.1s-.1,4.8-.1,8.5c-.1,3.7-.1,6.4-.1,8.2v1.5c0,.3,0,.8.1,1.4,0,.6.1,1.1.2,1.4s.2.8.3,1.3.3.9.5,1.2.5.6.8,1c.3.3.7.6,1.1.8.4.2.9.3,1.4.5.6,0,1.2.2,1.8.2,3.8,0,7.7-2.7,11.9-8.1l-1.2-1.2h-1Z"/>
            <path class="cls-1" d="M228.6,552.9c0-1.9-.4-3.5-1.2-4.9s-1.9-2.5-3.2-3.3c-1.4-.8-2.8-1.3-4.4-1.7-1.6-.4-3.3-.5-5.1-.5-3.3,0-6.3.6-9,1.8s-4.8,2.8-6.4,4.7c-1.6,2-2.9,4.2-3.7,6.6-.9,2.5-1.3,5-1.3,7.7,0,5.4,1.5,9.4,4.4,12.1,2.7,2.4,6.5,3.7,11.4,3.7s5.4-.6,8.1-1.9c2.7-1.3,5.6-3,8.6-5.1l-.8-1.4-1.1-.3c-4.3,2.5-8,3.8-11.1,3.8s-4.2-.6-5.9-1.7-2.9-2.6-3.7-4.3-1.2-3.6-1.2-5.5c15.5-4.7,23.4-7.1,23.5-7.1,1.2-.4,2-1.3,2.1-2.7h0ZM218.4,554.9c-.8.4-2.8,1-6,2-3.3.9-6.1,1.8-8.5,2.6h-.4c-.4,0-.5,0-.5-.4,0-1.1.1-2.3.3-3.5s.5-2.4,1-3.6c.5-1.3,1.1-2.4,1.8-3.4s1.7-1.8,2.9-2.4,2.6-.9,4-.9c2.2,0,3.8.8,4.9,2.4s1.7,3.4,1.7,5.5c0,.8-.4,1.4-1.2,1.7h0Z"/>
            <path class="cls-1" d="M308,572.9c-1.9.4-3.3.6-4.2.6s-1.6-.3-2.3-.8c-.8-.6-1.5-1.3-2.2-2.4s-1.3-2.1-1.8-3.2-1.1-2.4-1.7-4-1-2.9-1.3-3.9-.7-2.2-1.2-3.7l-8.1-26.7h-16.4v2.7l6.9.8c.1,0,.2,0,.2.3s0,.3-.1.3c-7.6,14.3-16.6,29-27,44.3v.7c.1,0,9.3-.8,9.3-.8,3.7-9.4,6.4-15.5,8-18.5h18.3l3.7,13c.3,1,.6,1.8.9,2.5s.8,1.5,1.3,2.2c.6.8,1.2,1.3,2.1,1.8.8.4,1.8.6,2.8.6s2.8-.2,4.6-.7,3.1-.9,4.1-1.3c.9-.4,2.5-1,4.6-2l-.5-1.8h0ZM282.7,554.9c-.2,0-.3,0-.4,0h-12.5c-.1,0-.3,0-.5-.2s-.3-.2-.3-.3c0-.3.1-.5.1-.6l7.7-14.9c.2-.4.4-.6.6-.6.3,0,.6.2.7.6l4.8,14.7c0,0,.1.4.1.9,0,0-.1.2-.3.3h0Z"/>
            <path class="cls-1" d="M332,543.2c-1.9,0-3.8.6-5.5,1.8-1.8,1.2-3.6,2.7-5.5,4.6l-.8-.3c0-2-.3-3.5-1-4.6s-1.9-1.6-3.8-1.6-1.9.2-3,.5-2.1.8-3.2,1.5-2,1.3-2.7,1.8-1.6,1.2-2.7,2l1.2,1.7c.7-.6,1.6-1.1,2.5-1.5s1.8-.7,2.4-.7.6,0,.9.2c.3,0,.5.3.7.5s.3.5.5.7c.1.2.2.6.3,1s.1.8.2,1.2.1.8.1,1.3v3.8c0,2.8-.2,9.8-.5,20.9l1.5.5,7.7-2.8c-.7-7.5-1-12.8-1-16s.1-2.2.3-3.3.5-2.2,1-3.3,1.2-2,2.1-2.7,2.1-1,3.5-1,2.1.4,2.8,1.1,1.2,1.7,1.4,2.8l1,.6,5.4-4.2c0-1.8-.5-3.3-1.4-4.6-1-1.3-2.5-1.9-4.4-1.9h0Z"/>
            <path class="cls-1" d="M380,569.7c-2.2,2-3.9,3-5.1,3s-1.1-.2-1.4-.5c-.4-.4-.6-1.1-.7-2.1s-.2-2-.2-2.9v-4.3c0-5.1.4-11.6,1.2-19.5l-1-.7-4.4,2.7c-3.4-2-7-3.1-10.6-3.1-5.8,0-10.2,1.8-13.2,5.6-3,3.7-4.5,9.2-4.5,16.4s.2,3.2.5,4.8.9,3.2,1.7,4.7,1.8,2.8,3.2,3.7,3.1,1.4,4.9,1.4c4.3,0,8.8-1.8,13.6-5.3l.9.3c.4,3.2,1.9,4.8,4.5,4.8s2.3-.2,3.5-.7c1.2-.4,2.3-1.1,3.3-1.9s2-1.6,2.7-2.4,1.6-1.7,2.5-2.7l-1.4-1.3h0ZM364.4,569.5c-2.8,2.6-5.7,3.9-8.5,3.9s-2.7-.4-3.8-1.1c-1.1-.8-1.9-1.8-2.4-3-.5-1.3-.9-2.5-1.2-3.8s-.4-2.6-.4-4,.1-2.3.2-3.5c.1-1.1.3-2.3.6-3.7.3-1.3.7-2.5,1.2-3.5.5-1.1,1.1-2.1,1.8-2.9.7-.9,1.6-1.6,2.7-2.1s2.3-.8,3.7-.8c4.5,0,6.7,3.1,6.7,9.2,0,7.4-.3,12.5-.6,15.3h0Z"/>
            <path class="cls-1" d="M418.7,552.8c-.2-1.3-.7-2.6-1.2-3.8-.6-1.2-1.3-2.3-2.2-3.3-.9-.9-2-1.7-3.3-2.2-1.3-.6-2.8-.9-4.4-.9-4.5,0-9,1.9-13.6,5.6l-.8-.2.5-19.7-1.1-.9-13.7,2-.6.6v1.6c2.4.2,4.1.5,5.2,1,1.1.4,1.6,1.2,1.6,2.2s0,1.7.1,3.2c0,1.4.1,2.7.1,3.7v24.7c0,2.3.3,4.3.9,6s1.5,3,2.6,3.9,2.3,1.6,3.6,2,2.7.6,4.3.6c5.4,0,10.6-2.1,15.5-6.2,2.4-1.9,4.1-4.3,5.3-7.1,1.2-2.8,1.8-5.8,1.8-8.9,0-1.3-.2-2.6-.6-3.9h0ZM410.2,564.8c-.2,1.3-.5,2.5-1,3.8s-1.1,2.4-1.9,3.3c-.8.9-1.7,1.7-2.9,2.3-1.2.6-2.6.9-4.1.9s-2.6-.4-3.6-1.3-1.7-2-2.2-3.5-.8-2.9-1-4.4c-.2-1.4-.3-3-.3-4.7l.2-9.6c1-.8,1.9-1.3,2.6-1.8.7-.4,1.6-.9,2.7-1.3s2.1-.6,3.1-.6c5.8,0,8.7,4.3,8.7,12.9,0,1.4-.1,2.7-.3,4h0Z"/>
            <path class="cls-1" d="M461.9,552.9c0-1.9-.4-3.5-1.2-4.9s-1.9-2.5-3.2-3.3c-1.4-.8-2.8-1.3-4.4-1.7s-3.3-.5-5.1-.5c-3.3,0-6.3.6-9,1.8s-4.8,2.8-6.4,4.7c-1.6,2-2.9,4.2-3.7,6.6-.9,2.5-1.3,5-1.3,7.7,0,5.4,1.5,9.4,4.4,12.1,2.7,2.4,6.5,3.7,11.4,3.7s5.4-.6,8.1-1.9c2.7-1.3,5.6-3,8.6-5.1l-.8-1.4-1.1-.3c-4.3,2.5-8,3.8-11.1,3.8s-4.2-.6-5.9-1.7-2.9-2.6-3.7-4.3-1.2-3.6-1.2-5.5c15.5-4.7,23.4-7.1,23.5-7.1,1.4-.4,2.1-1.3,2.1-2.7h0ZM451.7,554.9c-.8.4-2.8,1-6,2-3.3.9-6.1,1.8-8.5,2.6h-.4c-.4,0-.5,0-.5-.4,0-1.1.1-2.3.3-3.5s.5-2.4,1-3.6c.5-1.3,1.1-2.4,1.8-3.4s1.7-1.8,2.9-2.4,2.6-.9,4.1-.9c2.2,0,3.8.8,4.9,2.4,1.1,1.6,1.7,3.4,1.7,5.5,0,.8-.5,1.4-1.3,1.7h0Z"/>
            <path class="cls-1" d="M503.5,540.8c.8-2,1.8-3.7,3.1-5.2s2.8-2.7,4.8-3.6c2-.9,4.2-1.4,6.7-1.4s3.4.3,4.9.9,2.7,1.5,3.8,2.6,1.9,2.3,2.6,3.6c.7,1.3,1.3,2.7,1.8,4.2l1.3.6,7.1-6.4c-3.2-5.9-9.6-8.9-19.2-8.9s-8.1.6-11.8,1.7c-3.7,1.1-6.9,2.9-9.6,5.3-2.8,2.5-4.9,5.5-6.2,8.9s-2,7.1-2,10.9c0,8.3,2.5,14.6,7.4,19,4.3,3.9,10.3,5.9,17.9,5.9s6.8-.3,10.2-.9,7.4-1.5,11.9-2.7c-.3-4.5-.5-8.4-.5-11.6s0-5.3.4-8.4l-24.8.9v2.7c1.2,0,2.4,0,3.6.2s2.3,0,3.1.2c.8,0,1.6,0,2.5,0,.8,0,1.5,0,2,0s1,0,1.5.2.9.2,1.1.3.5.3.8.5c.2.2.4.4.5.7s.2.6.2.9v5.4c0,.4,0,1.1,0,2.1,0,.9,0,1.6,0,2.1s0,1-.2,1.5c0,.6-.3,1-.6,1.3s-.7.4-1.1.5c-1.1,0-2.8.2-5.1.2s-5.5-.4-7.9-1.3c-2.3-.9-4.3-2.1-5.8-3.5s-2.8-3.2-3.8-5.1c-1-2-1.7-4-2.2-6s-.6-4.2-.6-6.4.2-4,.5-5.9.8-4.2,1.6-6.2h0Z"/>
            <path class="cls-1" d="M626.6,569.8h-.9c-1.8,1.2-3.4,1.8-4.9,1.8s-1.6-.2-2.1-.7c-.3-.2-.5-.5-.6-.7s-.3-.7-.4-1.4c0-.7-.2-1.7-.2-3s0-2,0-3.7,0-2.9,0-3.6v-6.8c0-.9-.2-2.1-.4-3.6s-.6-2.6-1.1-3.1c-.5-.6-1.2-1.1-2.2-1.6s-2.2-.8-3.6-.8c-4.2,0-9,1.7-14.5,5l-.9-.3c0-1.5-.5-2.7-1.2-3.6s-1.9-1.3-3.6-1.3-2,.2-3,.5c-1.1.3-2.1.8-3.2,1.5-1.1.7-2,1.3-2.8,1.8-.4.3-.8.6-1.2.9-.7-.9-1.6-1.7-2.6-2.3-1.4-.8-2.8-1.3-4.4-1.7-1.6-.4-3.3-.5-5.1-.5-3.3,0-6.3.6-9,1.8s-4.8,2.8-6.4,4.7c-1.6,2-2.9,4.2-3.7,6.6-.9,2.5-1.3,5-1.3,7.7,0,5.4,1.5,9.4,4.4,12.1,2.7,2.4,6.5,3.7,11.4,3.7s5.4-.6,8.1-1.9c2.7-1.3,5.6-3,8.6-5.1l-.8-1.4-1.1-.3c-4.3,2.5-8,3.8-11.1,3.8s-4.2-.6-5.9-1.7-2.9-2.6-3.7-4.3-1.2-3.6-1.2-5.5c15.5-4.7,23.4-7.1,23.5-7.1,1.4-.4,2.1-1.3,2.1-2.7s-.2-2.7-.7-3.8c0,0,.3,0,.4-.2.3-.2.7-.4,1.1-.6.4-.2.8-.4,1.2-.5s.7-.2,1-.2.8,0,1.2.3c.3.2.6.5.8,1s.4.9.5,1.3.2,1,.2,1.8c0,.8,0,1.4,0,1.9v2.8c0,2.3-.2,9.3-.5,20.9l.9.5,8-2.3c-.2-1-.4-4.2-.5-9.5s-.2-10.5-.2-15.6c4.1-2.2,7.1-3.3,8.8-3.3s3.2.4,4.1,1.1c.6.6,1.1,1.6,1.4,3.2.3,1.5.5,2.9.6,4.1s0,2.8,0,4.7v10.3c0,1,0,1.8,0,2.3,0,.5.2,1.1.3,1.7s.3,1.1.5,1.4.5.7.8.9c1,.9,2.3,1.4,3.9,1.4s3.8-.9,6.1-2.7c1.1-.8,2.9-2.5,5.5-5l-.9-1.1h0ZM571.8,554.9c-.8.4-2.8,1-6,2-3.3.9-6.1,1.8-8.5,2.6h-.4c-.4,0-.5,0-.5-.4,0-1.1,0-2.3.3-3.5s.5-2.4,1-3.6c.5-1.3,1.1-2.4,1.8-3.4s1.7-1.8,2.9-2.4,2.6-.9,4.1-.9c2.2,0,3.8.8,4.9,2.4,1.1,1.6,1.7,3.4,1.7,5.5-.2.8-.6,1.4-1.3,1.7h0Z"/>
            <polygon class="cls-1" points="651.2 535.7 643.2 524.1 642.2 523.9 638 527.2 649.8 538.2 651.2 535.7"/>
            <path class="cls-1" d="M697.8,545.9c-.6-1.3-1.6-2.3-2.8-3.1h-.9l-5.5,4.1v1.2c.9,1.1,1.7,2.5,2.3,3.9s.9,2.9.9,4.2c0,4.6-2.3,8.8-6.8,12.7-.6.5-1.2.8-2,.8s-1.9-1.2-2.7-3.7c-.9-2.4-1.6-5.1-2.1-8.2-.6-3-1.2-5.9-2-8.8s-1.6-4.6-2.4-5.3c-.8-.6-1.7-.8-3-.8s-2.5.3-4,1c-1.5.6-2.8,1.3-3.8,1.9-.4.2-.8.5-1.2.8-.7-.8-1.4-1.5-2.3-2-1.4-.8-2.8-1.3-4.4-1.7-1.6-.4-3.3-.5-5.1-.5-3.3,0-6.3.6-9,1.8s-4.8,2.8-6.4,4.7c-1.6,2-2.9,4.2-3.7,6.6-.9,2.5-1.3,5-1.3,7.7,0,5.4,1.5,9.4,4.4,12.1,2.7,2.4,6.5,3.7,11.4,3.7s5.4-.6,8.1-1.9c2.7-1.3,5.6-3,8.6-5.1l-.8-1.4-1.1-.3c-4.3,2.5-8,3.8-11.1,3.8s-4.2-.6-5.9-1.7-2.9-2.6-3.7-4.3-1.2-3.6-1.2-5.5c15.5-4.7,23.4-7.1,23.5-7.1,1.4-.4,2.1-1.3,2.1-2.7s-.2-2.8-.7-4c1-.3,1.7-.5,2.2-.5s1.3.2,1.9.8c.5.5,1,1.2,1.4,2.2s.7,1.9.9,2.8.5,2,.8,3.3.5,2.3.6,2.9c1.3,5.1,2.8,11.2,4.4,18.4h3.2c0,0,0,0,.2,0s0,0,.2-.2c5.4-4.4,10.3-9.5,14.5-15.2,1.7-2.4,3.1-4.6,4.1-6.8s1.5-4.3,1.5-6.5c-.3-1.3-.7-2.6-1.3-4h0ZM653.6,554.9c-.8.4-2.8,1-6,2-3.3.9-6.1,1.8-8.5,2.6h-.4c-.4,0-.5,0-.5-.4,0-1.1,0-2.3.3-3.5s.5-2.4,1-3.6c.5-1.3,1.1-2.4,1.8-3.4s1.7-1.8,2.9-2.4,2.6-.9,4-.9c2.2,0,3.9.8,4.9,2.4,1.1,1.6,1.7,3.4,1.7,5.5s-.4,1.4-1.2,1.7h0Z"/>
            <path class="cls-1" d="M737.9,552.9c0-1.9-.4-3.5-1.2-4.9s-1.9-2.5-3.2-3.3c-1.4-.8-2.8-1.3-4.4-1.7-1.6-.4-3.3-.5-5.1-.5-3.3,0-6.3.6-9,1.8s-4.8,2.8-6.4,4.7c-1.6,2-2.9,4.2-3.7,6.6-.9,2.5-1.3,5-1.3,7.7,0,5.4,1.5,9.4,4.4,12.1,2.7,2.4,6.5,3.7,11.4,3.7s5.4-.6,8.1-1.9c2.7-1.3,5.6-3,8.6-5.1l-.8-1.4-1.1-.3c-4.3,2.5-8,3.8-11.1,3.8s-4.2-.6-5.9-1.7-2.9-2.6-3.7-4.3-1.2-3.6-1.2-5.5c15.5-4.7,23.4-7.1,23.5-7.1,1.4-.4,2.1-1.3,2.1-2.7h0ZM727.8,554.9c-.8.4-2.8,1-6,2-3.3.9-6.1,1.8-8.5,2.6h-.4c-.4,0-.5,0-.5-.4,0-1.1,0-2.3.3-3.5s.5-2.4,1-3.6c.5-1.3,1.1-2.4,1.8-3.4s1.7-1.8,2.9-2.4,2.6-.9,4-.9c2.2,0,3.8.8,4.9,2.4s1.7,3.4,1.7,5.5c0,.8-.5,1.4-1.2,1.7h0Z"/>
          </g>
        </g>
        <g>
          <path class="cls-1" d="M414.2,126.9v.2c-1.6.5-3.3.8-4.9.8s-4.1-.4-5.9-1.2c-1.8-1-2-1.7-2.1-1.7,0-1.6.5-2.3.9-2.7.7-.7,1.7-1.2,2.8-1.6.5,0,1.8.3,4.3,1.7,2.1,1.2,3.6,2.6,4.5,4.1v.2c.4,0,.4.2.4.2h0Z"/>
          <path class="cls-1" d="M609,242.1c0-119.6-96.9-216.5-216.5-216.5s-216.5,96.9-216.5,216.5,8.9,70.3,24.7,100.3l-3.8-77.9c152.3,6.8,195.6,111.5,195.6,111.5,0,0,43.2-104.6,195.6-111.5l-3.8,77.9c15.8-30,24.7-64.1,24.7-100.3h0ZM468.5,154.5c1,.5,1.4,1.2,1.5,1.7.1.4.2,1.3-.4,2.2-1,1.4-2.7,3.9-5.1,7.1l-.3.4-.4.2c-5.5,2.5-11.4,5.1-18.6,8.2-13.8,6.3-25,12.2-33.3,17.4-1.1.8-2,1.1-2.7,1.1-1.3,0-2.2-1-2.2-2.3s.6-2.7,3.8-6.5c2.3-2.8,4.5-4.8,6.5-6.2,5.5-3.6,14.2-8.2,26.8-14.1,9.7-4.6,16.7-7.6,20.9-9.2,1.5-.7,2.7-.4,3.5,0h0ZM433.7,98.8l4.4-7.2,2.5,3.8v3.3c-.1,0-.1,1.9-.1,1.9l1.1,7.9,2.4,14.8.9,8.1.4,6.4v3c-.1.8-.1,1.6-.3,2.5l-.2,2.3v1.1l-.4,1.2c-.1,1.4-.5,3.2-1.2,5.4-.7,3.1-1.8,6.1-3.1,8.9l-.8,1.7-4.5-2,1.4-4,.4-1.3v-1.6c.1,0,.9-11.6.9-11.6,0-2.2-.5-6.1-1.4-12l-2.7-15.5-1.4-10.3c-.3-1.9.4-4.2,1.7-6.8h0ZM396.5,79.5l11,6.1,3.1-4.6,1-1.5,4.1,2.2h0l.3.2,9.1,5.1-7.9,12.1-10.9-6.3-4.1,6.3-13.9-7.8,8.2-11.8h0ZM330.5,74.6c.4-.6.8-1.2,1.2-1.8,2.4-3.5,5.4-5.3,8.9-5.3s6.6,2,7.4,3.6c.7,1.1,1,2.5,1,4.2s-.4,3.1-1.2,4.8l-1,2.1-1.8-1.3c-4.9-3.6-6.9-3.9-7.3-3.9-2.2,0-2.2.7-2.2,1.5,0,1.4,1.8,2.8,3.3,3.8,2.5,1.5,4.6,2.3,6.4,2.3.9-.2,1.9-.4,2.8-.6.3,0,.6,0,.9-.2.7,0,1.4-.3,2.1-.4l3.5-1.3v9.9l-25.7,10.8,1.4-7.8.7-.4c1.3-.9,2.5-1.8,3.5-2.7-.3,0-.7-.2-1-.4-1.6-.6-2.8-1.6-3.6-2.9h-.4.3c-.9-1.5-1.4-3.2-1.4-5.3-.2-3.1.4-5.8,2.2-8.7h0ZM323.1,129.8c2.3-2.8,4.5-4.9,6.6-6.2,2-1.3,4.4-2.7,7.2-4.3l-.9-6.8c0-2.1.7-4.4,2.1-7.1h.1c0,0,4.4-7.2,4.4-7.2l2.5,3.8-.2,3.3v1.9l1,7.4c3.1-1.5,6.6-3.2,10.7-5.1,10.6-4.9,17-7.8,20.9-9.2,1.4-.5,2.6-.5,3.6,0,1,.6,1.4,1.3,1.4,1.9.1.7-.1,1.4-.5,2-1.1,1.7-2.8,3.9-5.1,7.1l-.3.4-.4.2c-5.5,2.5-11.4,5.1-18.6,8.2-3.5,1.6-6.9,3.2-10.1,4.8l.8,5.2.9,8.2.4,6.4v3c-.1.8-.2,1.7-.3,2.4l-.2,2.3v1.1l-.4,1.2c-.2,1.5-.6,3.3-1.3,5.4-.8,3.2-1.8,6.2-3.1,8.9l-.8,1.7-4.6-1.9,1.5-4,.4-1.3.2-1.6.8-11.5c0-2.2-.5-6.1-1.4-12l-1.6-8.9c-5.4,2.9-10.2,5.6-14.4,8.2-1.2.8-2,1.1-2.7,1.1-1.2,0-2.2-1-2.2-2.3-.3-1.4.5-2.9,3.6-6.7h0ZM318.4,171l1,1.2c2.1,2.7,4.5,4.9,7.1,6.8,2.9,2.1,5.4,3.2,7.4,3.2s2.2-.3,3.8-.9,3.3-1.4,5.2-2.6c3.6-2,8.4-5.8,14.1-11.4,6.3-6.1,7.4-8,7.6-8.5-.1-.6-.4-2-2-4.6l-2.4-3.7-3.6-5.8c-.4-.7-.8-1.4-1-2.1-.3-.7-.4-1.2-.5-1.7v-.3l.8-5c1-4.5,1.8-5.8,2.5-6.5l1.6-1.8,4.4,6.4,4.8,8c.4.5,1.6,1.6,5.2,3.7,3.2,1.9,6,2.9,8.1,2.9h4.3l13.2-.3c6.6,0,11.5-.8,14.6-2.2,1.8-.9,3.1-2.2,4-3.8.4-.6.5-1.2.5-2.1v-1.8c0-.1-.1-.5-.5-1.2h0c-.5,1.5-1.2,2.7-2.1,3.6-2.5,2.8-5.9,4.2-10.1,4.2s-6.1-.9-9-2.8h-.2c-1.4-1.3-2.6-2.7-3.3-4.4-.8-2-1.1-3.9-1.1-5.9,0-4.4,1.4-9.4,4.1-14.8,2.3-5.1,5-8.9,7.9-11.4,1.9-1.7,4.7-2,7.6-.9h.1c1,.6,2.1,1.3,3.2,2.2h.1c0,0,2.1,2.1,2.1,2.1l2.3,2.3c2.4,3.2,4.4,6.9,5.9,10.8.7,1.8,1.2,3.7,1.6,5.8.4,2,.6,4.1.6,6.1s-.1,2.2-.2,3.2c-.1,1.1-.4,2.2-.7,3.5-.6,2.4-1.4,4.9-2.6,7.7-1.6,4-3.1,6.8-4.6,8.5-1.4,1.7-3.9,3.2-7.3,4.5h-.1c-2,.7-3.7,1.1-5.3,1.4-1.1.2-2.2.3-3.3.3-1,.1-2.2.1-3.6.1h-20.3c-1.2,0-2.7-.3-4.9-1.1h-.1c0-.1-4.3-1.9-4.3-1.9-.1,2-.2,3.8-.5,5.4-.5,3.1-1.6,5.8-3.1,8.3-1.7,3.1-5.7,7.2-12,12.2-8.9,7.2-11,7.8-12.2,7.8-2.4,0-5.1-.6-7.9-1.8s-5.7-3.1-8.8-5.6c-4.7-3.6-8.4-7.4-11.1-11.3l-1.3-1.8,4.3-2.2h0ZM392.4,331.9s4.3-101.6,128.9-166.5l-2.8,27.5s-80.6,27.6-126.1,139c-45.5-111.4-126.1-139-126.1-139l-2.8-27.5c124.6,64.9,128.9,166.5,128.9,166.5ZM392.4,357.8h0c-2.7-6.1-43.1-93.5-171-109.1l3.8-44.5c168.3,60.3,167.2,153.6,167.2,153.6h0ZM392.5,358.1s-1.1-93.3,167.2-153.5l3.8,44.2c-132.4,16.2-171,109.3-171,109.3h0Z"/>
        </g>
      </g>
    </g>
  </g>
</svg>